<svg xmlns="http://www.w3.org/2000/svg" viewBox="0 0 3292.62 482.59"><defs><style>.cls-1{isolation:isolate;}.cls-2{fill:#1e3932;}.cls-3{fill:#00a862;}</style></defs><title>logo-buycoffee</title><g id="Warstwa_5" data-name="Warstwa 5"><path class="cls-2" d="M225.83,381.11c-113,0-167.91-60.56-194.11-111.37C3.12,214.29,0,155,0,132.06,0,81.35,40.36,45.93,98.1,45.93H257a30,30,0,0,1,0,60H98.1c-11.91,0-22.66,2.87-29.51,7.88-5.92,4.33-8.56,10-8.56,18.25,0,44.35,12,189.05,165.8,189.05,132.91,0,167.2-105.85,181.44-185.47.66-3.66,1.22-6.82,1.77-9.52,4.3-21.12,8.38-38.41,18.19-52.64,12.61-18.28,32.22-27.55,58.27-27.55A39.67,39.67,0,0,1,513.65,58c10.19,10.24,21.28,29.29,26.34,93,2.5,31.55,2.4,60.05,2.4,61.25a30,30,0,0,1-30,29.86h-.14A30,30,0,0,1,482.39,212c0-.49.07-24.95-1.9-52.17-1.71-23.54-4.13-38.38-6.22-47.51-2.69,7.41-5.28,20.12-6.44,25.81-.4,2-.91,4.82-1.5,8.1-4.85,27.14-14.95,83.62-48.18,135-19.33,29.87-43.7,53.47-72.42,70.12C311.61,371.08,271.27,381.11,225.83,381.11Z" transform="translate(-0.03 -0.05)"/><circle class="cls-3" cx="342.05" cy="74.93" r="30" transform="translate(150.74 368.18) rotate(-69.25)"/></g><g id="buycoffee.to"><path class="cls-2" d="M813.47,320.41v3.2a30.17,30.17,0,0,1-60.33,0V30.22A29,29,0,0,1,762.05,9a29.77,29.77,0,0,1,42.5,0,29,29,0,0,1,8.92,21.25V162.29q26.49-33.36,75.4-33.36,45.24,0,76.55,32.44t31.3,80q0,47.54-31.3,80t-76.55,32.45Q840,353.77,813.47,320.41ZM832.2,200.22q-17.37,15.54-17.36,41.13t17.59,41.36q17.6,15.77,43.19,15.76t43.18-15.76q17.6-15.76,17.6-41.36T918.8,200q-17.59-15.77-43.18-15.77T832.2,200.22Z" transform="translate(-0.03 -0.05)"/><path class="cls-2" d="M1158.5,323.61q-23.77,30.17-62.61,30.16-31.53,0-53-21.71t-21.48-57.35V159.09a30.16,30.16,0,0,1,60.32,0V260.54q0,18.29,10.74,29.48t27.65,11.2q16.91,0,27.65-11.2t10.74-29.48V159.09a30.16,30.16,0,0,1,60.32,0V323.61a30.16,30.16,0,0,1-60.32,0Z" transform="translate(-0.03 -0.05)"/><path class="cls-2" d="M1390.65,147.66q7.77-18.72,27-18.73a29.67,29.67,0,0,1,30.17,30.16,28.56,28.56,0,0,1-1.38,9.14L1334,463.45q-7.31,19.2-28.79,19.2a28.89,28.89,0,0,1-29.25-29.25,33.89,33.89,0,0,1,2.29-12.34l38.84-99.17-69.92-172.75a26,26,0,0,1-1.83-10.51,29,29,0,0,1,8.46-21,27.38,27.38,0,0,1,20.34-8.68q20.57,0,28.33,20.56l43.41,120.65Z" transform="translate(-0.03 -0.05)"/><path class="cls-2" d="M1642,128.93q43.41,0,75.86,26.5,12.78,10.06,12.79,23.77a26.83,26.83,0,0,1-8.22,19.65,27.38,27.38,0,0,1-20.11,8.22q-10.52,0-19.65-7.76-17.82-15.09-40.22-15.09a55.33,55.33,0,0,0-40,16.23q-16.7,16.23-16.68,40.9t16.68,40.9a55.28,55.28,0,0,0,40,16.22q22.4,0,40.22-15.08,9.13-7.75,19.65-7.77a27.39,27.39,0,0,1,20.11,8.23,26.83,26.83,0,0,1,8.22,19.65q0,13.71-12.79,23.77-32.46,26.5-75.86,26.5-48.45,0-82.72-32.67T1525,241.35q0-47.07,34.27-79.75T1642,128.93Z" transform="translate(-0.03 -0.05)"/><path class="cls-2" d="M1768.13,321.32q-34.28-32.43-34.27-80t34.27-80q34.27-32.43,84.09-32.44t84.09,32.44q34.28,32.46,34.27,80t-34.27,80q-34.27,32.46-84.09,32.45T1768.13,321.32Zm43-120.64q-16.92,16.44-16.91,40.67T1811.32,282a59.07,59.07,0,0,0,81.8,0q17.14-16.45,17.14-40.67t-17.14-40.67a57,57,0,0,0-40.9-16.46A57.77,57.77,0,0,0,1811.09,200.68Z" transform="translate(-0.03 -0.05)"/><path class="cls-2" d="M2011.71,134.41V100.59q0-43.41,23.08-68.32t62.38-24.9q29.23,0,49.35,11.42,13.71,7.77,13.71,22.85a23.86,23.86,0,0,1-7.54,17.82,25,25,0,0,1-18.05,7.32q-5,0-12.79-3.2c-4.57-2.13-10.22-3.2-16.91-3.2q-15.09,0-24,11.42t-8.91,32v30.62h91.86v-43q0-42.95,21.25-66.95t59.64-24q37.92,0,61.24,24.22a26.14,26.14,0,0,1,7.77,19.2,24.8,24.8,0,0,1-7.77,18.5A25.41,25.41,0,0,1,2287.74,70q-9.15,0-17.37-6.85-9.15-7.3-19.65-7.31-26.5,0-26.51,39.3v39.3h37a26.45,26.45,0,0,1,19.42,8,28.43,28.43,0,0,1,.23,39.3q-7.77,8-19.65,8h-37v133.9a30.16,30.16,0,0,1-60.32,0V189.71H2072v133.9a30.16,30.16,0,0,1-60.32,0V189.71h-12.34A27.31,27.31,0,0,1,1972,162.29a27,27,0,0,1,8-19.88,26.42,26.42,0,0,1,19.42-8Z" transform="translate(-0.03 -0.05)"/><path class="cls-2" d="M2494.3,259.17H2349.88q5.49,19,21,29.14t36.1,10.16q28.34,0,45.7-16.9,11.41-10.51,23.31-10.52a28.1,28.1,0,0,1,28.33,28.35,26.39,26.39,0,0,1-7.77,19.35q-33.82,35-90.94,35-50.28,0-84.55-32.22t-34.27-80.2q0-47.52,33.81-80t82.27-32.44q46.6,0,79.28,30.85t35.42,76.09q.45,10.51-5.94,16.91T2494.3,259.17Zm-143.05-43.41h106.94q-4.58-15.54-19.42-24.45t-34.5-8.91a60.32,60.32,0,0,0-32.22,9.14Q2357.18,200.68,2351.25,215.76Z" transform="translate(-0.03 -0.05)"/><path class="cls-2" d="M2736.5,259.17H2592.09q5.47,19,21,29.14t36.1,10.16q28.34,0,45.7-16.9,11.41-10.51,23.31-10.52a28.09,28.09,0,0,1,28.33,28.35,26.39,26.39,0,0,1-7.77,19.35q-33.83,35-90.94,35-50.28,0-84.54-32.22T2529,241.35q0-47.52,33.82-80t82.26-32.44q46.61,0,79.29,30.85t35.42,76.09q.45,10.51-5.94,16.91T2736.5,259.17Zm-143-43.41H2700.4q-4.58-15.54-19.43-24.45t-34.5-8.91a60.37,60.37,0,0,0-32.22,9.14Q2599.4,200.68,2593.46,215.76Z" transform="translate(-0.03 -0.05)"/><path class="cls-3" d="M2797.73,342.35a37.67,37.67,0,0,1-11-27,37.81,37.81,0,1,1,37.93,37.94A37.63,37.63,0,0,1,2797.73,342.35Z" transform="translate(-0.03 -0.05)"/><path class="cls-3" d="M2991,134.41h27.88a26.45,26.45,0,0,1,19.42,8,27,27,0,0,1,8,19.88,27.31,27.31,0,0,1-27.42,27.42H2991v133.9a30.16,30.16,0,0,1-60.32,0V189.71h-12.34A27.31,27.31,0,0,1,2891,162.29a27,27,0,0,1,8-19.88,26.42,26.42,0,0,1,19.42-8h12.34V98.77a30.16,30.16,0,0,1,60.32,0Z" transform="translate(-0.03 -0.05)"/><path class="cls-3" d="M3090.21,321.32q-34.27-32.43-34.28-80t34.28-80q34.27-32.43,84.08-32.44t84.09,32.44q34.27,32.46,34.28,80t-34.28,80q-34.27,32.46-84.09,32.45T3090.21,321.32Zm42.95-120.64q-16.9,16.44-16.9,40.67T3133.39,282a59.08,59.08,0,0,0,81.81,0q17.13-16.45,17.13-40.67t-17.13-40.67a57,57,0,0,0-40.91-16.46A57.8,57.8,0,0,0,3133.16,200.68Z" transform="translate(-0.03 -0.05)"/></g></svg>