<svg width="85" height="100" viewBox="0 0 85 100" fill="none" xmlns="http://www.w3.org/2000/svg">
<rect x="33.0735" y="39.027" width="30.068" height="45.5971" transform="rotate(0.648908 33.0735 39.027)" fill="#FAC02C"/>
<path d="M60.6248 37.8898L36.3035 37.6144C33.617 37.5839 31.4145 39.743 31.384 42.4368L30.942 81.457C30.9115 84.1508 33.0646 86.3592 35.751 86.3896L60.0724 86.665C62.7588 86.6955 64.9614 84.5364 64.9919 81.8426L65.4338 42.8224C65.4643 40.1287 63.3112 37.9203 60.6248 37.8898Z" stroke="black" stroke-width="5" stroke-linecap="round" stroke-linejoin="round"/>
<path d="M55.4291 67.0999L55.4534 67.1001" stroke="black" stroke-width="5" stroke-linecap="round" stroke-linejoin="round"/>
<path d="M39.1373 46.2156L57.5808 47.8198" stroke="black" stroke-width="5" stroke-linecap="round" stroke-linejoin="round"/>
<path d="M39.1635 58.5457L57.3338 54.9998" stroke="black" stroke-width="5" stroke-linecap="round" stroke-linejoin="round"/>
<g clip-path="url(#clip0_245_17)">
<path d="M27.7378 44.9914C23.9715 41.1459 16.3858 33.383 16.1731 33.0953L22.7463 19.9008L39.1392 18.4794L45.0005 36.0222L27.7378 44.9914Z" fill="#6F4EB0" stroke="black"/>
<path d="M20.6772 36.0404L25.1592 44.0105C32.6155 46.1023 42.1499 40.7217 44.2279 33.2494L39.746 25.2793" stroke="black" stroke-width="5" stroke-linecap="round" stroke-linejoin="round"/>
<path d="M44.3094 18.5042L49.6877 28.0683M44.3094 18.5042L23.9369 19.5017L12.5282 36.4394L32.9008 35.4419L44.3094 18.5042Z" stroke="black" stroke-width="5" stroke-linecap="round" stroke-linejoin="round"/>
</g>
<g clip-path="url(#clip1_245_17)">
<path fill-rule="evenodd" clip-rule="evenodd" d="M71.9171 36.8923C69.1522 44.8744 61.1583 49.4818 53.7587 47.2292C46.1629 44.9169 42.1416 36.0251 44.6215 27.8786C44.953 26.7897 45.5978 24.6081 48.1963 21.3873C49.7514 19.4597 50.7275 18.2485 51.4253 17.0822C51.8088 16.4411 52.4794 15.4414 52.8884 17.5276C53.1296 18.7577 52.6879 20.2868 52.6879 20.2868C52.6879 20.2868 55.3242 19.1513 57.7709 16.1936C61.3576 11.8577 60.6063 8.3844 60.6693 6.14733C60.691 5.37342 60.9589 4.05224 62.1354 5.00725C63.3343 5.98049 66.1018 9.87363 67.0969 13.392C68.5171 18.4135 68.2502 22.7328 68.2502 22.7328C68.2502 22.7328 69.4742 21.8134 70.1573 20.6693C70.9286 19.3775 71.355 17.9952 72.0131 19.8243C72.639 21.5637 73.3984 24.7056 73.5113 27.5072C73.7162 32.5948 71.9171 36.8923 71.9171 36.8923Z" fill="url(#paint0_linear_245_17)"/>
<path fill-rule="evenodd" clip-rule="evenodd" d="M53.7587 47.2292C48.5062 45.6303 45.6775 39.6396 47.4404 33.8484C48.5042 30.3541 50.4271 28.6214 53.961 26.5536C56.2236 25.2296 58.5053 23.452 59.6512 22.1175C59.8769 21.8548 60.6613 20.3667 61.2674 22.5732C61.5855 23.7305 62.0218 25.7492 62.1901 27.4099C62.4801 30.2732 61.9845 32.8116 61.9845 32.8116C61.9845 32.8116 63.2325 32.4519 64.4769 30.9263C64.8781 30.4347 65.9907 28.4498 66.6441 30.972C67.1236 32.8228 67.5807 36.0272 66.461 39.6386C64.6981 45.4298 59.011 48.8281 53.7587 47.2292Z" fill="#FC9502"/>
<path fill-rule="evenodd" clip-rule="evenodd" d="M57.3916 35.8202C58.745 36.2322 57.9039 38.9954 58.4999 43.2082C58.8967 46.0134 56.41 48.0363 53.905 47.2738C51.4 46.5112 50.7824 43.8768 51.6232 41.1149C52.4639 38.3531 56.0383 35.4082 57.3916 35.8202Z" fill="#FCE202"/>
</g>
<defs>
<linearGradient id="paint0_linear_245_17" x1="53.7701" y1="47.2658" x2="66.2834" y2="6.15998" gradientUnits="userSpaceOnUse">
<stop stop-color="#FF4C0D"/>
<stop offset="1" stop-color="#FC9502"/>
</linearGradient>
<clipPath id="clip0_245_17">
<rect width="43.7912" height="43.8905" fill="white" transform="matrix(0.870892 -0.491474 0.49016 0.871633 0.38623 22.2928)"/>
</clipPath>
<clipPath id="clip1_245_17">
<rect width="39" height="43" fill="white" transform="translate(47.6904 0.466808) rotate(16.9311)"/>
</clipPath>
</defs>
</svg>
