<svg width="187" height="25" viewBox="0 0 187 25" fill="none" xmlns="http://www.w3.org/2000/svg">
<circle cx="12" cy="12" r="12" fill="url(#paint0_linear_653_16)"/>
<path d="M38.74 20C37.6867 20 36.8933 19.74 36.36 19.22C35.8267 18.7 35.56 17.8867 35.56 16.78V11.9H34.1V9.6H35.56V7.5L38.26 7.22V9.6H40.46V11.9H38.26V16.64C38.26 17.28 38.54 17.6 39.1 17.6H40.22V20H38.74ZM46.0691 20.26C45.0157 20.26 44.0824 20.02 43.2691 19.54C42.4557 19.0467 41.8224 18.3867 41.3691 17.56C40.9157 16.7333 40.6891 15.82 40.6891 14.82C40.6891 13.8333 40.9224 12.92 41.3891 12.08C41.8557 11.24 42.4957 10.5733 43.3091 10.08C44.1357 9.58667 45.0557 9.34 46.0691 9.34C47.0824 9.34 47.9891 9.58667 48.7891 10.08C49.6024 10.5733 50.2291 11.24 50.6691 12.08C51.1224 12.9067 51.3491 13.82 51.3491 14.82C51.3491 15.1533 51.3224 15.4733 51.2691 15.78H43.4891C43.6491 16.4067 43.9491 16.9133 44.3891 17.3C44.8424 17.6733 45.4024 17.86 46.0691 17.86C46.6291 17.86 47.1291 17.7333 47.5691 17.48C48.0091 17.2133 48.3557 16.8733 48.6091 16.46L50.7091 18.04C50.2824 18.7067 49.6557 19.2467 48.8291 19.66C48.0024 20.06 47.0824 20.26 46.0691 20.26ZM48.6291 13.76C48.4691 13.16 48.1557 12.66 47.6891 12.26C47.2224 11.86 46.6691 11.66 46.0291 11.66C45.4024 11.66 44.8557 11.8533 44.3891 12.24C43.9357 12.6267 43.6357 13.1333 43.4891 13.76H48.6291ZM57.5377 20.26C56.4843 20.26 55.5377 20.02 54.6977 19.54C53.8577 19.0467 53.1977 18.3867 52.7177 17.56C52.2377 16.72 51.9977 15.8067 51.9977 14.82C51.9977 13.8333 52.2377 12.92 52.7177 12.08C53.1977 11.24 53.8577 10.58 54.6977 10.1C55.5377 9.60667 56.4843 9.36 57.5377 9.36C58.591 9.36 59.5377 9.60667 60.3777 10.1C61.2177 10.58 61.8777 11.24 62.3577 12.08C62.8377 12.92 63.0777 13.8333 63.0777 14.82C63.0777 15.8067 62.8377 16.72 62.3577 17.56C61.8777 18.3867 61.2177 19.0467 60.3777 19.54C59.5377 20.02 58.591 20.26 57.5377 20.26ZM54.6977 14.82C54.6977 15.3667 54.811 15.8667 55.0377 16.32C55.2777 16.7733 55.611 17.1333 56.0377 17.4C56.4777 17.6667 56.9777 17.8 57.5377 17.8C58.0977 17.8 58.591 17.6667 59.0177 17.4C59.4577 17.1333 59.791 16.7733 60.0177 16.32C60.2577 15.8667 60.3777 15.3667 60.3777 14.82C60.3777 14.2733 60.2577 13.7733 60.0177 13.32C59.7777 12.8667 59.4443 12.5067 59.0177 12.24C58.591 11.96 58.0977 11.82 57.5377 11.82C56.9777 11.82 56.4843 11.96 56.0577 12.24C55.631 12.5067 55.2977 12.8667 55.0577 13.32C54.8177 13.7733 54.6977 14.2733 54.6977 14.82ZM64.2727 9.6H66.8927V11.58C67.0793 10.82 67.4393 10.2467 67.9727 9.86C68.5193 9.47333 69.2327 9.30667 70.1127 9.36V11.9H69.7327C68.9327 11.9 68.2727 12.1533 67.7527 12.66C67.2327 13.1533 66.9727 13.8267 66.9727 14.68V20H64.2727V9.6ZM71.0109 9.6H73.7109V20H71.0109V9.6ZM70.7309 7.14C70.7309 6.7 70.8843 6.32667 71.1909 6.02C71.5109 5.71333 71.8976 5.56 72.3509 5.56C72.8176 5.56 73.2043 5.71333 73.5109 6.02C73.8176 6.32667 73.9709 6.7 73.9709 7.14C73.9709 7.59333 73.8176 7.97333 73.5109 8.28C73.2043 8.58667 72.8176 8.74 72.3509 8.74C71.8976 8.74 71.5109 8.58667 71.1909 8.28C70.8843 7.96 70.7309 7.58 70.7309 7.14ZM80.0478 20.26C79.1145 20.26 78.2545 20.02 77.4678 19.54C76.6811 19.0467 76.0545 18.3867 75.5878 17.56C75.1345 16.7333 74.9078 15.8267 74.9078 14.84C74.9078 13.8533 75.1345 12.9467 75.5878 12.12C76.0545 11.28 76.6811 10.6133 77.4678 10.12C78.2545 9.62667 79.1145 9.38 80.0478 9.38C80.9011 9.38 81.5878 9.54 82.1078 9.86C82.6411 10.18 83.0545 10.64 83.3478 11.24V9.6H86.0278V20H83.4078V18.3C83.1011 18.9267 82.6811 19.4133 82.1478 19.76C81.6278 20.0933 80.9278 20.26 80.0478 20.26ZM77.6078 14.82C77.6078 15.3533 77.7278 15.8533 77.9678 16.32C78.2211 16.7733 78.5611 17.14 78.9878 17.42C79.4278 17.6867 79.9278 17.82 80.4878 17.82C81.0611 17.82 81.5678 17.6867 82.0078 17.42C82.4611 17.1533 82.8078 16.7933 83.0478 16.34C83.2878 15.8867 83.4078 15.3867 83.4078 14.84C83.4078 14.2933 83.2878 13.7933 83.0478 13.34C82.8078 12.8733 82.4611 12.5067 82.0078 12.24C81.5678 11.96 81.0611 11.82 80.4878 11.82C79.9278 11.82 79.4278 11.96 78.9878 12.24C78.5478 12.5067 78.2078 12.8667 77.9678 13.32C77.7278 13.7733 77.6078 14.2733 77.6078 14.82ZM87.632 9.6H90.332V20H87.632V9.6ZM87.352 7.14C87.352 6.7 87.5054 6.32667 87.812 6.02C88.132 5.71333 88.5187 5.56 88.972 5.56C89.4387 5.56 89.8254 5.71333 90.132 6.02C90.4387 6.32667 90.592 6.7 90.592 7.14C90.592 7.59333 90.4387 7.97333 90.132 8.28C89.8254 8.58667 89.4387 8.74 88.972 8.74C88.5187 8.74 88.132 8.58667 87.812 8.28C87.5054 7.96 87.352 7.58 87.352 7.14ZM91.9289 9.6H94.5889V11.12C95.1356 9.94667 96.1956 9.36 97.7689 9.36C98.5156 9.36 99.1889 9.54 99.7889 9.9C100.389 10.2467 100.862 10.7467 101.209 11.4C101.556 12.04 101.729 12.7867 101.729 13.64V20H99.0289V14.3C99.0289 13.4333 98.8289 12.7867 98.4289 12.36C98.0289 11.9333 97.4822 11.72 96.7889 11.72C96.1756 11.72 95.6622 11.94 95.2489 12.38C94.8356 12.8067 94.6289 13.4467 94.6289 14.3V20H91.9289V9.6ZM103.802 8.9C103.802 7.84667 104.116 7 104.742 6.36C105.369 5.72 106.209 5.4 107.262 5.4H108.382V7.7H107.682C106.896 7.7 106.502 8.11333 106.502 8.94V9.6H108.622V11.9H106.502V20H103.802V11.9H102.342V9.6H103.802V8.9ZM114.159 20.26C113.105 20.26 112.159 20.02 111.319 19.54C110.479 19.0467 109.819 18.3867 109.339 17.56C108.859 16.72 108.619 15.8067 108.619 14.82C108.619 13.8333 108.859 12.92 109.339 12.08C109.819 11.24 110.479 10.58 111.319 10.1C112.159 9.60667 113.105 9.36 114.159 9.36C115.212 9.36 116.159 9.60667 116.999 10.1C117.839 10.58 118.499 11.24 118.979 12.08C119.459 12.92 119.699 13.8333 119.699 14.82C119.699 15.8067 119.459 16.72 118.979 17.56C118.499 18.3867 117.839 19.0467 116.999 19.54C116.159 20.02 115.212 20.26 114.159 20.26ZM111.319 14.82C111.319 15.3667 111.432 15.8667 111.659 16.32C111.899 16.7733 112.232 17.1333 112.659 17.4C113.099 17.6667 113.599 17.8 114.159 17.8C114.719 17.8 115.212 17.6667 115.639 17.4C116.079 17.1333 116.412 16.7733 116.639 16.32C116.879 15.8667 116.999 15.3667 116.999 14.82C116.999 14.2733 116.879 13.7733 116.639 13.32C116.399 12.8667 116.065 12.5067 115.639 12.24C115.212 11.96 114.719 11.82 114.159 11.82C113.599 11.82 113.105 11.96 112.679 12.24C112.252 12.5067 111.919 12.8667 111.679 13.32C111.439 13.7733 111.319 14.2733 111.319 14.82ZM120.894 9.6H123.514V11.58C123.7 10.82 124.06 10.2467 124.594 9.86C125.14 9.47333 125.854 9.30667 126.734 9.36V11.9H126.354C125.554 11.9 124.894 12.1533 124.374 12.66C123.854 13.1533 123.594 13.8267 123.594 14.68V20H120.894V9.6ZM127.632 9.6H130.292V11.12C130.839 9.94667 131.899 9.36 133.472 9.36C134.205 9.36 134.865 9.53333 135.452 9.88C136.052 10.2133 136.519 10.6933 136.852 11.32C137.212 10.6667 137.665 10.18 138.212 9.86C138.772 9.52667 139.492 9.36 140.372 9.36C141.119 9.36 141.792 9.54 142.392 9.9C142.992 10.2467 143.465 10.7467 143.812 11.4C144.159 12.04 144.332 12.7867 144.332 13.64V20H141.632V14.3C141.632 13.4333 141.445 12.7867 141.072 12.36C140.699 11.9333 140.192 11.72 139.552 11.72C138.872 11.72 138.345 11.9133 137.972 12.3C137.612 12.6867 137.432 13.3533 137.432 14.3V20H134.732V14.3C134.732 13.4333 134.532 12.7867 134.132 12.36C133.732 11.9333 133.185 11.72 132.492 11.72C131.879 11.72 131.365 11.94 130.952 12.38C130.539 12.8067 130.332 13.4467 130.332 14.3V20H127.632V9.6ZM150.575 20.26C149.642 20.26 148.782 20.02 147.995 19.54C147.208 19.0467 146.582 18.3867 146.115 17.56C145.662 16.7333 145.435 15.8267 145.435 14.84C145.435 13.8533 145.662 12.9467 146.115 12.12C146.582 11.28 147.208 10.6133 147.995 10.12C148.782 9.62667 149.642 9.38 150.575 9.38C151.428 9.38 152.115 9.54 152.635 9.86C153.168 10.18 153.582 10.64 153.875 11.24V9.6H156.555V20H153.935V18.3C153.628 18.9267 153.208 19.4133 152.675 19.76C152.155 20.0933 151.455 20.26 150.575 20.26ZM148.135 14.82C148.135 15.3533 148.255 15.8533 148.495 16.32C148.748 16.7733 149.088 17.14 149.515 17.42C149.955 17.6867 150.455 17.82 151.015 17.82C151.588 17.82 152.095 17.6867 152.535 17.42C152.988 17.1533 153.335 16.7933 153.575 16.34C153.815 15.8867 153.935 15.3867 153.935 14.84C153.935 14.2933 153.815 13.7933 153.575 13.34C153.335 12.8733 152.988 12.5067 152.535 12.24C152.095 11.96 151.588 11.82 151.015 11.82C150.455 11.82 149.955 11.96 149.515 12.24C149.075 12.5067 148.735 12.8667 148.495 13.32C148.255 13.7733 148.135 14.2733 148.135 14.82ZM162.099 20C161.046 20 160.253 19.74 159.719 19.22C159.186 18.7 158.919 17.8867 158.919 16.78V11.9H157.459V9.6H158.919V7.5L161.619 7.22V9.6H163.819V11.9H161.619V16.64C161.619 17.28 161.899 17.6 162.459 17.6H163.579V20H162.099ZM166.114 24.18C165.367 24.18 164.767 24.1133 164.314 23.98L164.714 21.4C165.087 21.4933 165.494 21.54 165.934 21.54C166.427 21.54 166.841 21.3933 167.174 21.1C167.521 20.82 167.774 20.44 167.934 19.96L168.074 19.52L163.954 9.6H167.214L169.234 15.54C169.421 16.0467 169.567 16.6 169.674 17.2C169.781 16.6 169.927 16.0467 170.114 15.54L172.134 9.6H175.334L170.734 20.66C170.254 21.7933 169.647 22.66 168.914 23.26C168.194 23.8733 167.261 24.18 166.114 24.18ZM178.535 15.06V20H175.835V5.4H178.535V13.8L182.435 9.6H186.275L181.375 14.44L186.295 20H182.715L178.535 15.06Z" fill="white"/>
<defs>
<linearGradient id="paint0_linear_653_16" x1="0" y1="0" x2="23.8433" y2="24.1547" gradientUnits="userSpaceOnUse">
<stop stop-color="#6A1DA0"/>
<stop offset="0.525" stop-color="#AB63DE"/>
<stop offset="1" stop-color="#FCE202"/>
</linearGradient>
</defs>
</svg>
