<svg width="128" height="128" viewBox="0 0 128 128" fill="none" xmlns="http://www.w3.org/2000/svg">
<rect x="1" y="1" width="126" height="126" rx="7" fill="url(#paint0_linear_1431_441)"/>
<rect x="1" y="1" width="126" height="126" rx="7" stroke="#FCE202" stroke-width="2"/>
<path d="M42.6667 69.3333C42.162 69.3351 41.6673 69.1936 41.2399 68.9253C40.8125 68.657 40.47 68.2729 40.2521 67.8177C40.0343 67.3626 39.9501 66.8549 40.0093 66.3538C40.0685 65.8526 40.2687 65.3786 40.5867 64.9867L66.9867 37.7867C67.1847 37.5581 67.4546 37.4036 67.752 37.3486C68.0493 37.2936 68.3566 37.3414 68.6233 37.484C68.89 37.6267 69.1002 37.8557 69.2196 38.1336C69.3389 38.4115 69.3602 38.7217 69.28 39.0133L64.16 55.0667C64.009 55.4707 63.9583 55.9054 64.0122 56.3333C64.0662 56.7613 64.2231 57.1698 64.4696 57.5238C64.7161 57.8778 65.0447 58.1667 65.4274 58.3658C65.8101 58.5648 66.2353 58.6681 66.6667 58.6667H85.3333C85.838 58.6649 86.3327 58.8064 86.7601 59.0747C87.1875 59.343 87.53 59.7271 87.7479 60.1822C87.9657 60.6374 88.0499 61.1451 87.9907 61.6462C87.9315 62.1474 87.7313 62.6214 87.4133 63.0133L61.0133 90.2133C60.8153 90.4419 60.5454 90.5964 60.2481 90.6514C59.9507 90.7064 59.6434 90.6586 59.3767 90.516C59.11 90.3733 58.8998 90.1443 58.7804 89.8664C58.6611 89.5885 58.6398 89.2783 58.72 88.9867L63.84 72.9333C63.991 72.5293 64.0417 72.0946 63.9878 71.6666C63.9338 71.2387 63.7769 70.8302 63.5304 70.4762C63.2839 70.1222 62.9553 69.8333 62.5726 69.6342C62.1899 69.4352 61.7647 69.3319 61.3333 69.3333H42.6667Z" stroke="#FCE202" stroke-width="4" stroke-linecap="round" stroke-linejoin="round"/>
<defs>
<linearGradient id="paint0_linear_1431_441" x1="3.04187" y1="2.00388e-06" x2="128" y2="124.34" gradientUnits="userSpaceOnUse">
<stop stop-color="#FFF8BB"/>
<stop offset="1" stop-color="#716608"/>
</linearGradient>
</defs>
</svg>
