<svg width="67" height="35" viewBox="0 0 67 35" fill="none" xmlns="http://www.w3.org/2000/svg">
<ellipse cx="17.3868" cy="17.5" rx="17.3868" ry="17.5" fill="url(#paint0_linear_653_2)"/>
<path d="M56.4114 11.5455V15.1818H45.9V11.5455H56.4114ZM48.2864 7.36364H53.1273V23.6364C53.1273 24.0833 53.1955 24.4318 53.3319 24.6818C53.4682 24.9242 53.6576 25.0947 53.9 25.1932C54.15 25.2917 54.4379 25.3409 54.7637 25.3409C54.991 25.3409 55.2182 25.322 55.4455 25.2841C55.6728 25.2386 55.847 25.2045 55.9682 25.1818L56.7296 28.7841C56.4872 28.8598 56.1463 28.947 55.7069 29.0455C55.2675 29.1515 54.7334 29.2159 54.1046 29.2386C52.9379 29.2841 51.9152 29.1288 51.0364 28.7727C50.1652 28.4167 49.4872 27.8636 49.0023 27.1136C48.5175 26.3636 48.2788 25.4167 48.2864 24.2727V7.36364ZM59.5648 29V11.5455H64.4057V29H59.5648ZM61.9966 9.29545C61.2769 9.29545 60.6595 9.05682 60.1444 8.57954C59.6368 8.0947 59.383 7.51515 59.383 6.84091C59.383 6.17424 59.6368 5.60227 60.1444 5.125C60.6595 4.64015 61.2769 4.39773 61.9966 4.39773C62.7163 4.39773 63.33 4.64015 63.8375 5.125C64.3527 5.60227 64.6103 6.17424 64.6103 6.84091C64.6103 7.51515 64.3527 8.0947 63.8375 8.57954C63.33 9.05682 62.7163 9.29545 61.9966 9.29545Z" fill="black"/>
<defs>
<linearGradient id="paint0_linear_653_2" x1="0" y1="0" x2="34.7736" y2="35" gradientUnits="userSpaceOnUse">
<stop stop-color="#6A1DA0"/>
<stop offset="0.525" stop-color="#AB63DE"/>
<stop offset="1" stop-color="#FCE202"/>
</linearGradient>
</defs>
</svg>
